<svg width="47" height="46" viewBox="0 0 47 46" fill="none" xmlns="http://www.w3.org/2000/svg">
<g opacity="0.2" clip-path="url(#clip0_1_744)">
<path d="M37.1447 41.5308C47.3781 34.0054 49.5733 19.609 42.0479 9.37556C34.5225 -0.857842 20.1261 -3.05308 9.89267 4.47235C-0.340738 11.9978 -2.53598 26.3942 4.98946 36.6276C12.5149 46.861 26.9113 49.0562 37.1447 41.5308Z" fill="url(#paint0_radial_1_744)"/>
<path opacity="0.55" d="M18.4691 17.3443C22.5066 17.3443 25.7797 14.0712 25.7797 10.0337C25.7797 5.9962 22.5066 2.72314 18.4691 2.72314C14.4316 2.72314 11.1585 5.9962 11.1585 10.0337C11.1585 14.0712 14.4316 17.3443 18.4691 17.3443Z" fill="url(#paint1_radial_1_744)"/>
<path opacity="0.22" d="M10.6977 19.7846C9.87028 25.0738 7.58704 29.1166 5.59706 28.8128C3.60708 28.5091 2.65398 23.9636 3.47092 18.6639C4.29833 13.3643 6.58157 9.33196 8.57156 9.63569C10.5615 9.93942 11.5146 14.485 10.6977 19.7846Z" fill="url(#paint2_radial_1_744)"/>
</g>
<defs>
<radialGradient id="paint0_radial_1_744" cx="0" cy="0" r="1" gradientUnits="userSpaceOnUse" gradientTransform="translate(17.666 15.2093) scale(34.9399)">
<stop stop-color="#C1E5B9"/>
<stop offset="0.37" stop-color="#B2D0A6"/>
<stop offset="0.53" stop-color="#AAC59C"/>
<stop offset="0.87" stop-color="#89956F"/>
<stop offset="1" stop-color="#C1E5B9"/>
</radialGradient>
<radialGradient id="paint1_radial_1_744" cx="0" cy="0" r="1" gradientUnits="userSpaceOnUse" gradientTransform="translate(18.4691 10.0337) scale(7.31057 7.31056)">
<stop stop-color="white"/>
<stop offset="0.07" stop-color="white" stop-opacity="0.92"/>
<stop offset="0.22" stop-color="white" stop-opacity="0.7"/>
<stop offset="0.44" stop-color="white" stop-opacity="0.36"/>
<stop offset="0.66" stop-color="white" stop-opacity="0"/>
</radialGradient>
<radialGradient id="paint2_radial_1_744" cx="0" cy="0" r="1" gradientUnits="userSpaceOnUse" gradientTransform="translate(7.07713 19.285) rotate(8.84) scale(3.65528 9.72305)">
<stop stop-color="white"/>
<stop offset="0.07" stop-color="white" stop-opacity="0.92"/>
<stop offset="0.22" stop-color="white" stop-opacity="0.7"/>
<stop offset="0.44" stop-color="white" stop-opacity="0.36"/>
<stop offset="0.66" stop-color="white" stop-opacity="0"/>
</radialGradient>
<clipPath id="clip0_1_744">
<rect width="46" height="46" fill="white" transform="translate(0.517365)"/>
</clipPath>
</defs>
</svg>
