<svg width="75" height="75" viewBox="0 0 75 75" fill="none" xmlns="http://www.w3.org/2000/svg">
<g opacity="0.2" clip-path="url(#clip0_1_431)">
<path d="M59.7185 67.7133C76.4034 55.4435 79.9826 31.9712 67.7129 15.2863C55.4431 -1.39864 31.9708 -4.97784 15.2859 7.29189C-1.39902 19.5616 -4.97822 43.034 7.29151 59.7189C19.5612 76.4038 43.0336 79.983 59.7185 67.7133Z" fill="url(#paint0_radial_1_431)"/>
<path opacity="0.55" d="M29.269 28.2787C35.8519 28.2787 41.1884 22.9422 41.1884 16.3593C41.1884 9.77638 35.8519 4.43988 29.269 4.43988C22.6861 4.43988 17.3496 9.77638 17.3496 16.3593C17.3496 22.9422 22.6861 28.2787 29.269 28.2787Z" fill="url(#paint1_radial_1_431)"/>
<path opacity="0.22" d="M16.5983 32.2575C15.2493 40.8811 11.5266 47.4727 8.28208 46.9775C5.03754 46.4822 3.48358 39.071 4.81555 30.4303C6.16459 21.7896 9.88727 15.2152 13.1318 15.7104C16.3763 16.2056 17.9303 23.6168 16.5983 32.2575Z" fill="url(#paint2_radial_1_431)"/>
</g>
<defs>
<radialGradient id="paint0_radial_1_431" cx="0" cy="0" r="1" gradientUnits="userSpaceOnUse" gradientTransform="translate(27.9598 24.7979) scale(56.9672)">
<stop stop-color="#C1E5B9"/>
<stop offset="0.37" stop-color="#B2D0A6"/>
<stop offset="0.53" stop-color="#AAC59C"/>
<stop offset="0.87" stop-color="#89956F"/>
<stop offset="1" stop-color="#C1E5B9"/>
</radialGradient>
<radialGradient id="paint1_radial_1_431" cx="0" cy="0" r="1" gradientUnits="userSpaceOnUse" gradientTransform="translate(29.269 16.3593) scale(11.9194)">
<stop stop-color="white"/>
<stop offset="0.07" stop-color="white" stop-opacity="0.92"/>
<stop offset="0.22" stop-color="white" stop-opacity="0.7"/>
<stop offset="0.44" stop-color="white" stop-opacity="0.36"/>
<stop offset="0.66" stop-color="white" stop-opacity="0"/>
</radialGradient>
<radialGradient id="paint2_radial_1_431" cx="0" cy="0" r="1" gradientUnits="userSpaceOnUse" gradientTransform="translate(10.6952 31.443) rotate(8.84) scale(5.9597 15.8528)">
<stop stop-color="white"/>
<stop offset="0.07" stop-color="white" stop-opacity="0.92"/>
<stop offset="0.22" stop-color="white" stop-opacity="0.7"/>
<stop offset="0.44" stop-color="white" stop-opacity="0.36"/>
<stop offset="0.66" stop-color="white" stop-opacity="0"/>
</radialGradient>
<clipPath id="clip0_1_431">
<rect width="75" height="75" fill="white"/>
</clipPath>
</defs>
</svg>
